# xmcd
#
# Track frame offsets:
# 150
# 15510
# 28797
# 43289
# 58852
# 74404
# 86319
# 98816
# 115145
# 133251
# 150256
# 160189
# 173237
# 190005
# 203603
# 219335
# 236591
# 253059
# 269128
# 284080
# 303138
#
# Disc length: 4255 seconds
#
#
# Revision: 0
# Processed by: cddbd v1.5.1PL2 Copyright (c) Steve Scherf et al.
# Submitted via: FreeRIP 2.943 
#
DISCID=2b109d15
DTITLE=modern talking - hit`s mix
DYEAR=1995
DGENRE=Eurodance
TTITLE0=modern talking hit`s mix
TTITLE1=modern talking hit`s mix
TTITLE2=modern talking hit`s mix
TTITLE3=modern talking hit`s mix
TTITLE4=modern talking hit`s mix
TTITLE5=modern talking hit`s mix
TTITLE6=modern talking hit`s mix
TTITLE7=modern talking hit`s mix
TTITLE8=modern talking hit`s mix
TTITLE9=modern talking hit`s mix
TTITLE10=modern talking hit`s mix
TTITLE11=modern talking hit`s mix
TTITLE12=modern talking hit`s mix
TTITLE13=modern talking hit`s mix
TTITLE14=modern talking hit`s mix
TTITLE15=modern talking hit`s mix
TTITLE16=modern talking hit`s mix
TTITLE17=modern talking hit`s mix
TTITLE18=modern talking hit`s mix
TTITLE19=modern talking hit`s mix
TTITLE20=modern talking hit`s mix
EXTD=
EXTT0=
EXTT1=
EXTT2=
EXTT3=
EXTT4=
EXTT5=
EXTT6=
EXTT7=
EXTT8=
EXTT9=
EXTT10=
EXTT11=
EXTT12=
EXTT13=
EXTT14=
EXTT15=
EXTT16=
EXTT17=
EXTT18=
EXTT19=
EXTT20=
PLAYORDER=
